<?xml version="1.0" standalone="no"?>
<!DOCTYPE svg PUBLIC "-//W3C//DTD SVG 20010904//EN"
        "http://www.w3.org/TR/2001/REC-SVG-20010904/DTD/svg10.dtd">
<svg version="1.0" xmlns="http://www.w3.org/2000/svg"
     width="406.000000pt" height="401.000000pt" viewBox="0 0 406.000000 401.000000"
     preserveAspectRatio="xMidYMid meet">

    <g transform="translate(0.000000,401.000000) scale(0.100000,-0.100000)"
       fill="#000000" stroke="none">
        <path d="M1271 3924 l-31 -26 0 -391 0 -392 -72 0 c-65 -1 -101 -10 -159 -42
-4 -2 -18 16 -32 40 -15 25 -146 164 -292 310 l-265 265 0 50 c0 38 -6 58 -29
89 -48 66 -149 100 -208 70 -44 -23 -101 -91 -108 -130 -13 -69 30 -163 88
-190 36 -17 107 -21 141 -8 18 7 68 -41 489 -475 l108 -111 -31 -61 c-23 -43
-33 -75 -34 -114 l-1 -53 -40 -7 c-22 -3 -192 -7 -378 -7 l-338 -1 -24 -25
c-33 -33 -31 -65 6 -101 l30 -29 366 -2 c201 -1 367 -4 370 -6 2 -3 5 -41 6
-86 l2 -81 -372 0 c-372 0 -372 0 -397 -22 -41 -37 -43 -72 -8 -108 l30 -30
371 0 c203 0 371 -3 373 -7 2 -5 2 -42 0 -83 l-3 -75 -371 0 -370 0 -24 -28
c-27 -31 -32 -82 -11 -111 16 -22 76 -36 127 -29 21 3 176 2 344 -2 l306 -7 0
-77 0 -77 -363 0 c-403 1 -400 1 -427 -65 -12 -27 -11 -36 1 -58 29 -51 39
-52 379 -47 173 2 336 2 363 -1 l47 -6 0 -78 0 -79 -369 0 -369 0 -31 -26
c-39 -33 -41 -74 -6 -109 l24 -25 343 0 c189 0 360 -3 381 -6 l37 -7 0 -54 c0
-43 7 -69 32 -115 l31 -59 -209 -212 c-233 -236 -332 -340 -355 -376 -14 -23
-16 -23 -46 -7 -70 36 -155 11 -202 -59 -19 -28 -24 -49 -24 -96 0 -51 4 -64
30 -97 47 -58 89 -82 145 -82 111 0 182 80 165 187 -6 36 -5 38 236 280 133
134 275 271 314 304 71 59 73 60 110 50 21 -6 66 -11 101 -11 l62 0 2 -47 c1
-27 2 -200 3 -385 l0 -337 26 -27 c35 -35 76 -35 106 0 23 27 23 30 23 284 0
141 3 314 7 384 l6 128 82 0 83 0 6 -31 c3 -17 6 -190 6 -384 l0 -353 31 -26
c40 -34 64 -33 100 3 l29 29 0 381 0 381 95 0 95 0 0 -389 0 -390 26 -20 c33
-26 75 -27 105 -2 l24 19 5 394 5 393 93 3 92 2 0 -388 0 -389 23 -20 c12 -11
31 -23 42 -27 26 -7 85 28 86 51 1 10 0 149 -1 308 -1 160 1 327 5 373 l8 82
82 0 c82 0 83 0 89 -27 3 -16 9 -191 13 -391 l6 -363 25 -19 c31 -25 49 -25
91 1 l34 20 -3 302 c-2 166 -3 341 -2 390 l2 87 63 0 c39 0 77 7 103 19 l41
19 254 -252 c140 -138 279 -272 309 -299 l55 -47 0 -64 c0 -69 15 -100 68
-140 38 -28 140 -33 187 -9 86 45 128 179 78 252 -33 49 -81 75 -140 75 -26 0
-54 -6 -60 -12 -23 -23 -47 -11 -97 51 -44 54 -380 386 -498 491 l-43 38 24
31 c37 50 53 88 61 145 4 28 8 53 8 53 1 1 172 4 380 8 l379 6 19 24 c26 31
25 83 -2 107 -20 18 -44 19 -400 22 l-379 3 0 78 0 78 113 6 c61 4 230 7 375
7 l263 0 24 25 c16 15 25 36 25 55 0 19 -9 40 -25 55 -23 24 -29 25 -172 26
-81 1 -250 0 -375 -1 l-228 -2 0 75 c0 60 3 76 16 81 9 4 178 9 375 13 353 6
359 7 379 28 41 44 19 127 -37 141 -15 4 -186 4 -380 0 l-353 -6 0 80 0 80 93
2 c50 1 217 2 369 3 302 2 319 5 337 56 12 35 -3 85 -29 99 -11 6 -168 10
-394 10 l-376 0 0 83 0 84 137 6 c75 4 246 7 380 7 l244 0 24 26 c36 38 37 78
3 107 -18 16 -53 17 -404 17 l-384 0 0 34 c0 36 -33 154 -56 199 -11 21 -12
27 -2 27 7 0 22 13 33 29 22 32 294 311 424 435 45 44 86 87 91 97 8 15 21 16
87 12 65 -4 83 -1 109 15 40 26 67 83 72 155 4 56 4 58 -39 101 -55 54 -102
69 -171 55 -36 -8 -61 -22 -87 -48 -42 -42 -55 -83 -41 -132 10 -33 8 -35 -68
-103 -121 -109 -481 -478 -499 -511 -8 -16 -16 -31 -18 -32 -1 -2 -21 7 -46
20 -34 17 -61 22 -122 22 l-77 0 0 390 c-1 412 0 409 -48 434 -28 15 -52 8
-80 -22 -22 -23 -22 -29 -24 -413 l-3 -389 -97 -3 -97 -3 2 396 2 397 -24 19
c-34 28 -72 24 -106 -11 l-28 -29 4 -387 4 -386 -98 -1 -97 -2 0 395 c0 217
-4 400 -8 406 -12 18 -56 44 -73 44 -10 0 -31 -12 -48 -26 l-31 -26 0 -396 0
-397 -95 0 -94 0 -3 398 -3 399 -24 19 c-32 26 -77 24 -105 -4 l-23 -24 5
-345 c2 -190 2 -366 -2 -392 l-7 -46 -88 0 -88 0 -6 257 c-4 141 -7 320 -7
399 0 142 0 143 -26 163 -35 28 -56 26 -93 -5z m1586 -1020 c35 -5 94 -59 119
-106 12 -24 14 -146 12 -785 l-3 -758 -30 -54 c-19 -35 -45 -64 -71 -80 l-40
-26 -840 0 -841 0 -36 28 c-63 48 -88 89 -98 165 -6 40 -8 362 -7 773 3 666 4
706 22 742 21 42 92 96 140 107 35 8 1622 3 1673 -6z"/>
        <path d="M1963 2565 c-13 -9 -27 -32 -32 -53 -15 -55 -9 -969 6 -1004 15 -33
67 -62 99 -54 55 14 54 10 57 566 l2 512 -28 24 c-32 28 -73 31 -104 9z"/>
        <path d="M1450 2509 c-50 -20 -70 -49 -70 -102 0 -40 5 -53 29 -78 43 -42 96
-41 139 4 53 55 36 144 -33 173 -19 8 -36 14 -37 13 -2 0 -14 -5 -28 -10z"/>
        <path d="M2501 2484 c-28 -23 -31 -31 -31 -85 0 -63 18 -112 45 -123 33 -12
75 -5 101 18 24 20 28 32 32 89 4 63 3 68 -26 97 -39 38 -79 40 -121 4z"/>
        <path d="M2510 2213 c-21 -25 -29 -121 -29 -381 -1 -179 2 -240 13 -267 26
-60 80 -69 128 -18 19 21 23 34 21 86 -3 143 -23 496 -30 542 -8 50 -8 50 -48
52 -27 2 -45 -2 -55 -14z"/>
        <path d="M1403 2073 c-41 -8 -51 -105 -15 -145 12 -15 32 -18 114 -18 92 0
101 2 123 25 50 49 16 120 -65 136 -46 8 -118 10 -157 2z"/>
        <path d="M1411 1701 c-35 -33 -40 -70 -17 -126 17 -39 67 -69 101 -61 13 3 37
22 54 41 24 27 31 45 31 76 0 90 -102 132 -169 70z"/>
    </g>
</svg>
